<svg xmlns="http://www.w3.org/2000/svg" xmlns:xlink="http://www.w3.org/1999/xlink" xmlns:lucid="lucid" width="1572" height="1492"><g transform="translate(246.00000000000003 185.99999999999977)" lucid:page-tab-id="0_0"><path d="M480 66a6 6 0 0 1 6-6h148a6 6 0 0 1 6 6v108a6 6 0 0 1-6 6H486a6 6 0 0 1-6-6z" stroke="#3a414a" fill="#fff"/><use xlink:href="#a" transform="matrix(1,0,0,1,480,60) translate(8.429999999999987 63.15)"/><use xlink:href="#b" transform="matrix(1,0,0,1,480,60) translate(98.33 63.15)"/><path d="M239.75 39.75c0 10.9-8.84 19.75-19.75 19.75-10.9 0-19.75-8.84-19.75-19.75C200.25 28.85 209.1 20 220 20c10.9 0 19.75 8.84 19.75 19.75z" fill="#fff"/><path d="M239.3 43.33l-.18 1.38-.63 1.6m-.78 1.9l-.44 1.1-1.12 1.55m-1.22 1.66l-.62.85-1.6 1.3m-1.6 1.3l-.68.57-2 .92m-1.88.86l-.62.3-2.37.42m-2.03.36l-.5.1-1.04.02-1.54-.2m-2.04-.25l-1.38-.18-1.58-.63m-1.92-.77l-1.1-.44-1.54-1.12m-1.66-1.2l-.84-.63-1.3-1.6m-1.3-1.6l-.57-.68-.92-2m-.85-1.9l-.3-.6-.42-2.38m-.36-2.03l-.1-.5-.02-1.05.2-1.54m.25-2.03l.18-1.38.63-1.6m.78-1.9l.44-1.1 1.12-1.55m1.22-1.66l.62-.85 1.6-1.3m1.6-1.3l.68-.57 2-.92m1.88-.86l.62-.3 2.37-.42m2.03-.36l.5-.1L220 20l1.54.2m2.04.25l1.38.18 1.58.63m1.92.77l1.1.44 1.54 1.12m1.66 1.2l.84.63 1.3 1.6m1.3 1.6l.57.68.92 2m.85 1.9l.3.6.42 2.38m.36 2.03l.1.5.02 1.05-.2 1.54" stroke="#3a414a" fill="none"/><path d="M220 59.5v49.3a20.7 20.7 0 0 0 3.2 11.07L260 178m-40-63.2L180 178m0-98.75h80" fill="none"/><path d="M220 59.5v1.48m0 1.97v2.96m0 1.98v2.96m0 1.97v2.97m0 1.97v2.96m0 1.97v2.96m0 1.97v2.96m0 1.97v2.96m0 1.96v2.96m0 1.97v2.95m0 1.97v1.48l.03 1.17.04.4m.26 2.1l.2.96.3 1.13.3.95m.78 1.96l.17.37.54 1.04.8 1.26m1.08 1.7l1.6 2.53m1.07 1.7l1.6 2.52m1.07 1.7l1.6 2.52m1.07 1.7l1.6 2.53m1.06 1.7l1.6 2.52m1.07 1.7l1.6 2.53m1.07 1.7l1.6 2.52m1.08 1.7l1.6 2.52m1.07 1.7l1.6 2.53m1.07 1.7l1.6 2.52m1.07 1.7l1.6 2.53m1.06 1.7l1.6 2.52m1.07 1.7l1.6 2.52m1.07 1.7l.8 1.26m-40-63.2l-.8 1.26m-1.07 1.7l-1.6 2.52m-1.06 1.68l-1.6 2.53m-1.07 1.68l-1.6 2.52m-1.07 1.7l-1.6 2.52m-1.06 1.68l-1.6 2.53m-1.07 1.7l-1.6 2.5m-1.07 1.7l-1.6 2.53m-1.06 1.68l-1.6 2.53m-1.07 1.7l-1.6 2.5m-1.07 1.7l-1.6 2.53m-1.06 1.68l-1.6 2.53m-1.07 1.7l-1.6 2.52m-1.07 1.7l-1.6 2.52m-1.06 1.68l-1.6 2.53m-1.07 1.7L180 178m0-98.75h1.5m2 0h3m2 0h3m2 0h3m2 0h3m2 0h3m2 0h3m2 0h3m2 0h3m2 0h3m2 0h3m2 0h3m2 0h3m2 0h3m2 0h3m2 0h3m2 0h1.5" stroke="#3a414a" fill="none"/><path d="M180 26a6 6 0 0 1 6-6h68a6 6 0 0 1 6 6v168a6 6 0 0 1-6 6h-68a6 6 0 0 1-6-6z" fill="none"/><use xlink:href="#c" transform="matrix(1,0,0,1,100,178) translate(94.10493827160494 17.77777777777778)"/><path d="M860 66a6 6 0 0 1 6-6h148a6 6 0 0 1 6 6v108a6 6 0 0 1-6 6H866a6 6 0 0 1-6-6z" stroke="#3a414a" fill="#fff"/><use xlink:href="#d" transform="matrix(1,0,0,1,860,60) translate(53.555 63.15)"/><path d="M220 241v9.88m0 9.88v19.76m0 9.87v19.75m0 9.88v19.76m0 9.87v19.75m0 9.88v19.76m0 9.88v19.76m0 9.88v19.75m0 9.88v19.77m0 9.88v19.76m0 9.88v19.76m0 9.88v19.76m0 9.88v19.76m0 9.87v19.75m0 9.88v19.76m0 9.87v19.75m0 9.88v19.76m0 9.88v19.76m0 9.88v19.75m0 9.88v19.77m0 9.88v19.76m0 9.88v19.76m0 9.88v19.76m0 9.88v19.76m0 9.87v19.75m0 9.88v19.76m0 9.87v19.75m0 9.88v19.76m0 9.88v19.76m0 9.88v19.75m0 9.88v19.77m0 9.88v19.76m0 9.88v19.76m0 9.88v9.88M220 241.03V240M220 1218.97v1.03M560 1001.46v10.36m0 10.36v20.72m0 10.36v20.72m0 10.35v20.72m0 10.36v20.73m0 10.36v20.7m0 10.36v20.72m0 10.36V1219" stroke="#3a414a" stroke-width="2" fill="none"/><path d="M561 1001.5h-2v-1.03h2z" stroke="#3a414a" stroke-width=".05" fill="#3a414a"/><path d="M560 1218.97v1.03M560 241v10.78m0 10.78v21.57m0 10.78v21.57m0 10.8v10.77M560 241.03V240" stroke="#3a414a" stroke-width="2" fill="none"/><path d="M561 339.04h-2V338h2z" stroke="#3a414a" stroke-width=".05" fill="#3a414a"/><path d="M960 241v9.88m0 9.88v19.76m0 9.87v19.75m0 9.88v19.76m0 9.87v19.75m0 9.88v19.76m0 9.88v19.76m0 9.88v19.75m0 9.88v19.77m0 9.88v19.76m0 9.88v19.76m0 9.88v19.76m0 9.88v19.76m0 9.87v19.75m0 9.88v19.76m0 9.87v19.75m0 9.88v19.76m0 9.88v19.76m0 9.88v19.75m0 9.88v19.77m0 9.88v19.76m0 9.88v19.76m0 9.88v19.76m0 9.88v19.76m0 9.87v19.75m0 9.88v19.76m0 9.87v19.75m0 9.88v19.76m0 9.88v19.76m0 9.88v19.75m0 9.88v19.77m0 9.88v19.76m0 9.88v19.76m0 9.88v9.88M960 241.03V240M960 1218.97v1.03" stroke="#3a414a" stroke-width="2" fill="none"/><path d="M240.93 321.13H389.4a.55.55 0 0 0 .57-.55.55.55 0 0 1 .55-.56h132.6" stroke="#3a414a" fill="none"/><path d="M240.94 321.63h-.5v-1h.5z" stroke="#3a414a" stroke-width=".05" fill="#3a414a"/><path d="M537.88 320.02l-14.26 4.64v-9.27z" stroke="#3a414a" fill="#3a414a"/><use xlink:href="#e" transform="matrix(1,0,0,1,313.03229411957267,294.6923123093561) translate(0 14.222222222222223)"/><use xlink:href="#f" transform="matrix(1,0,0,1,313.03229411957267,294.6923123093561) translate(83.75308641975309 14.222222222222223)"/><path d="M256.82 400.76h1.48m1.97 0h2.95m1.97 0h2.94m1.97 0h2.96m1.96 0h2.96m1.96 0h2.96m1.96 0h2.96m1.96 0h2.96m1.96 0h2.96m1.96 0h2.96m1.96 0h2.96m1.96 0h2.96m1.96 0h2.96m1.96 0h2.95m1.97 0h2.95m1.97 0h2.95m1.96 0H337m1.98 0h2.95m1.97 0h2.95m1.97 0h2.95m1.97 0h2.95m1.96 0h2.95m1.98 0h2.95m1.97 0h2.95m1.97 0h2.95m1.97 0h2.95m1.96 0h2.95m1.98 0h1.53l.05-.02.05-.02.04-.02.04-.03.03-.04.04-.04.02-.06v-.11l.02-.05v-.06l.03-.04.03-.05.04-.03.03-.04.05-.02.04-.02h1.54m1.97 0h3m1.97 0h2.98m1.98 0h2.98m2 0h2.97m1.98 0h2.97m2 0h2.96m2 0h2.96m2 0h2.96m1.98 0h2.98m1.98 0h2.98m1.98 0h2.98m1.98 0h2.98m1.98 0h2.98m1.98 0h2.97m2 0h2.96m2 0h2.97m2-.02h2.96m2 0h2.96m1.97 0h2.98m1.98 0h2.98m2 0h2.97m1.98 0h2.98m1.98 0h3m1.97 0h2.97m2 0h2.96m2 0h2.96m2 0h2.96m1.98 0h2.98m1.98 0h2.98m1.98 0h1.5" stroke="#3a414a" fill="none"/><path d="M242.06 400.76l14.26-4.64v9.27z" stroke="#3a414a" fill="#3a414a"/><path d="M539.5 400.62h-.5v-1h.5z" stroke="#3a414a" stroke-width=".05" fill="#3a414a"/><use xlink:href="#g" transform="matrix(1,0,0,1,303.2724234253601,374.790535399583) translate(0 14.222222222222223)"/><use xlink:href="#h" transform="matrix(1,0,0,1,303.2724234253601,374.790535399583) translate(68.0493827160494 14.222222222222223)"/><use xlink:href="#i" transform="matrix(1,0,0,1,303.2724234253601,374.790535399583) translate(99.55555555555557 14.222222222222223)"/><path d="M240.95 505.03h148.93a.1.1 0 0 0 .1-.1.1.1 0 0 1 .1-.1h133.06" stroke="#3a414a" fill="none"/><path d="M240.96 505.53h-.5v-1h.5z" stroke="#3a414a" stroke-width=".05" fill="#3a414a"/><path d="M537.9 504.82l-14.26 4.63v-9.27z" stroke="#3a414a" fill="#3a414a"/><use xlink:href="#j" transform="matrix(1,0,0,1,339.19333752172264,479.6994148342898) translate(0 14.222222222222223)"/><path d="M580.95 528.3h178.87a.16.16 0 0 0 .16-.16.16.16 0 0 1 .16-.17h162.98" stroke="#3a414a" fill="none"/><path d="M580.96 528.8h-.5v-1h.5z" stroke="#3a414a" stroke-width=".05" fill="#3a414a"/><path d="M937.9 527.97l-14.28 4.64v-9.26z" stroke="#3a414a" fill="#3a414a"/><use xlink:href="#k" transform="matrix(1,0,0,1,696.9088389101178,502.6398273741102) translate(0 14.222222222222223)"/><use xlink:href="#h" transform="matrix(1,0,0,1,696.9088389101178,502.6398273741102) translate(58.17283950617285 14.222222222222223)"/><use xlink:href="#l" transform="matrix(1,0,0,1,696.9088389101178,502.6398273741102) translate(89.67901234567903 14.222222222222223)"/><path d="M596.84 581.48h163a.14.14 0 0 0 .15-.14.14.14 0 0 1 .13-.14h178.9" stroke="#3a414a" fill="none"/><path d="M582.07 581.48l14.27-4.63v9.27z" stroke="#3a414a" fill="#3a414a"/><path d="M939.52 581.7H939v-1h.52z" stroke="#3a414a" stroke-width=".05" fill="#3a414a"/><use xlink:href="#m" transform="matrix(1,0,0,1,634.8719405701826,555.8622932408848) translate(0 14.222222222222223)"/><use xlink:href="#n" transform="matrix(1,0,0,1,634.8719405701826,555.8622932408848) translate(45.33333333333334 14.222222222222223)"/><use xlink:href="#o" transform="matrix(1,0,0,1,634.8719405701826,555.8622932408848) translate(70.02469135802471 14.222222222222223)"/><use xlink:href="#p" transform="matrix(1,0,0,1,634.8719405701826,555.8622932408848) translate(101.53086419753089 14.222222222222223)"/><use xlink:href="#q" transform="matrix(1,0,0,1,634.8719405701826,555.8622932408848) translate(196.98765432098767 14.222222222222223)"/><path d="M256.84 612.08H390v-.02h149.03" stroke="#3a414a" fill="none"/><path d="M242.08 612.08l14.26-4.64v9.27z" stroke="#3a414a" fill="#3a414a"/><path d="M539.53 612.56h-.5v-1h.5z" stroke="#3a414a" stroke-width=".05" fill="#3a414a"/><use xlink:href="#r" transform="matrix(1,0,0,1,272.7366014599638,586.7275763090248) translate(0 14.222222222222223)"/><use xlink:href="#s" transform="matrix(1,0,0,1,272.7366014599638,586.7275763090248) translate(67.11111111111111 14.222222222222223)"/><use xlink:href="#t" transform="matrix(1,0,0,1,272.7366014599638,586.7275763090248) translate(162.5679012345679 14.222222222222223)"/><path d="M240.97 670.63h282.19" stroke="#3a414a" fill="none"/><path d="M240.98 671.13h-.5v-1h.5z" stroke="#3a414a" stroke-width=".05" fill="#3a414a"/><path d="M537.92 670.63l-14.26 4.63V666z" stroke="#3a414a" fill="#3a414a"/><use xlink:href="#u" transform="matrix(1,0,0,1,253.48357393754424,640.658622134568) translate(0 14.222222222222223)"/><use xlink:href="#v" transform="matrix(1,0,0,1,253.48357393754424,640.658622134568) translate(65.13580246913581 14.222222222222223)"/><use xlink:href="#w" transform="matrix(1,0,0,1,253.48357393754424,640.658622134568) translate(96.64197530864199 14.222222222222223)"/><use xlink:href="#o" transform="matrix(1,0,0,1,253.48357393754424,640.658622134568) translate(188.2962962962963 14.222222222222223)"/><use xlink:href="#q" transform="matrix(1,0,0,1,253.48357393754424,640.658622134568) translate(219.80246913580248 14.222222222222223)"/><path d="M256.87 836h132.97a.18.18 0 0 0 .18-.17.18.18 0 0 1 .18-.18h148.86" stroke="#3a414a" fill="none"/><path d="M242.1 836l14.27-4.63v9.27z" stroke="#3a414a" fill="#3a414a"/><path d="M539.56 836.15h-.52v-1h.52z" stroke="#3a414a" stroke-width=".05" fill="#3a414a"/><use xlink:href="#x" transform="matrix(1,0,0,1,300.43368368944215,810.3160399436073) translate(0 14.222222222222223)"/><use xlink:href="#y" transform="matrix(1,0,0,1,300.43368368944215,810.3160399436073) translate(95.45679012345678 14.222222222222223)"/><path d="M241 892.02h148.73a.3.3 0 0 0 .3-.3.3.3 0 0 1 .3-.3h132.85" stroke="#3a414a" fill="none"/><path d="M241 892.52h-.5v-1h.5z" stroke="#3a414a" stroke-width=".05" fill="#3a414a"/><path d="M537.94 891.42l-14.26 4.64v-9.27z" stroke="#3a414a" fill="#3a414a"/><use xlink:href="#z" transform="matrix(1,0,0,1,326.38303111324524,866.0907267228683) translate(0 14.222222222222223)"/><use xlink:href="#A" transform="matrix(1,0,0,1,326.38303111324524,866.0907267228683) translate(66.12345679012347 14.222222222222223)"/><path d="M200 286a6 6 0 0 1 6-6h28a6 6 0 0 1 6 6v728a6 6 0 0 1-6 6h-28a6 6 0 0 1-6-6zM540 306a6 6 0 0 1 6-6h28a6 6 0 0 1 6 6v688a6 6 0 0 1-6 6h-28a6 6 0 0 1-6-6zM940 506a6 6 0 0 1 6-6h28a6 6 0 0 1 6 6v328a6 6 0 0 1-6 6h-28a6 6 0 0 1-6-6z" stroke="#3a414a" fill="#fff"/><path d="M-217.5-160h1515M-217.44-160H-220M1297.43-160h2.57M-218.75-157.5v716.88a.62.62 0 0 1-.63.62.62.62 0 0 0-.62.62v716.88M-218.75-157.44V-160M-220 1277.44v2.56" stroke="#3a414a" stroke-width="5" fill="none"/><use xlink:href="#B" transform="matrix(1,0,0,1,-210.7501036761795,-143.11774205764885) translate(0 16)"/><use xlink:href="#C" transform="matrix(1,0,0,1,-210.7501036761795,-143.11774205764885) translate(99.83333333333334 16)"/><use xlink:href="#D" transform="matrix(1,0,0,1,-210.7501036761795,-143.11774205764885) translate(191.8888888888889 16)"/><use xlink:href="#E" transform="matrix(1,0,0,1,-210.7501036761795,-143.11774205764885) translate(286.11111111111114 16)"/><path d="M-217.5 1280h1515M-217.44 1280H-220M1297.44 1280h2.56M1300 1277.5v-1435M1300 1277.44v2.56M1300-157.44V-160" stroke="#3a414a" stroke-width="5" fill="none"/><path d="M-216.75-60h388.88a6 6 0 0 0 6-6v-92M-216.7-60h-2.05M178.13-157.95V-160" stroke="#3a414a" stroke-width="4" fill="none"/><path d="M-97.5 346a6 6 0 0 1 6-6h88a6 6 0 0 1 6 6v8a14.5 14.5 0 0 1-4.24 10.24l-1.52 1.52A14.5 14.5 0 0 1-13.5 370h-78a6 6 0 0 1-6-6z" fill="#fff"/><path d="M2.5 340v20l-10 10h-90" fill="none"/><path d="M2.5 340v3m0 4v6m0 4v3l-3 3m-4 4l-3 3h-3m-4 0h-6m-4 0h-6m-4 0h-6m-4 0h-6m-4 0h-6m-4 0h-6m-4 0h-6m-4 0h-6m-4 0h-3" stroke="#3a414a" stroke-width="2" fill="none"/><path d="M-97.5 346a6 6 0 0 1 6-6h1303a6 6 0 0 1 6 6v668a6 6 0 0 1-6 6h-1303a6 6 0 0 1-6-6z" fill="none"/><path d="M-94.8 341l.58-.35.87-.36.9-.23h3.02m4 0h6.03m4 0h6.03m4 0h6.03m4 0h6.03m4 0h6.02m4 0h6.03m4 0h6.03m4 0h6.03m4.02 0H.84m4.02 0h6m4.03 0h6m4.02 0h6m4.03 0h6m4.03 0h6m4.03 0h6.02m4.02 0h6.02m4 0h6.03m4 0h6.02m4 0h6.03m4 0h6.03m4 0h6.03m4.02 0h6.02m4 0h6.03m4 0h6.03m4 0h6.03m4 0h6.03m4 0h6.03m4 0h6.02m4 0h6.03m4 0h6.03m4 0h6.03m4.02 0h6.02m4 0h6.03m4-.02h6.03m4 0h6.03m4 0h6.03m4 0h6.03m4 0h6.02m4 0h6.03m4 0h6.03m4 0h6.03m4.02 0h6.02m4.02 0h6m4.03 0h6m4.02 0h6m4.03 0h6m4.03 0h6m4.03 0h6.02m4.02 0h6.02m4 0h6.03m4 0h6.02m4 0h6.03m4 0h6.03m4 0h6.03m4.02 0h6.02m4 0h6.03m4 0h6.03m4 0h6.03m4 0h6.03m4 0h6.03m4 0h6.02m4 0h6.03m4 0h6.03m4 0h6.03m4.02 0h6.02m4 0h6.03m4 0h6.03m4 0h6.03m4-.02h6.03m4 0h6.03m4 0h6.02m4 0h6.03m4 0h6.03m4 0h6.03m4.02 0h6.02m4 0h6.03m4.02 0h6m4.02 0h6m4.03 0h6m4.03 0h6m4.03 0h6.02m4.02 0h6m4.03 0h6.02m4 0h6.02m4 0h6.03m4 0h6.03m4 0h6.03m4.02 0h6.02m4 0h6.03m4 0h6.03m4 0h6.03m4 0h6.03m4 0h6.03m4 0h6.02m4 0h6.03m4 0h6.03m4 0h6.03m4.02 0h6.02m4 0h6.03m4 0h6.03m4 0h6.03m4 0h6.03m4 0h6.03m4-.02h6.02m4 0h6.03m4 0h6.03m4 0h6.03m4.02 0h6.02m4 0h6.03m4 0h6.03m4.02 0h6m4.03 0h6m4.03 0h6m4.03 0h6.02m4.02 0h6m4.03 0h6m4.03 0h6.02m4 0h6.03m4 0h6.03m4 0h6.03m4.02 0h6.02m4 0h6.03m4 0h6.03m4 0h6.03m4 0h6.03m4 0h6.03m4 0h6.02m4 0h6.03m4 0h6.03m4 0h3.02l.94.07.9.22.62.25m2.54 2.16l.35.58.36.87.23.9v3m0 4v6m0 3.98v6m0 4V378m0 4v6m0 4v5.98m0 4v5.98m0 4v6m0 3.98v6m0 3.98v6m0 4v5.98m0 4v5.98m0 4v6m0 3.98v6m0 3.98v6m0 4v5.98m0 4v5.98m0 4l.02 6m0 3.98v6m0 4v5.98m0 4v5.98m0 4v5.98m0 4v6m0 3.98v6m0 4v5.98m0 4v5.98m0 4v5.98m0 4v6m0 3.98v6m0 4v5.98m0 4v5.98m0 4v6m0 3.98v6m0 3.98v6m0 4v5.98m0 4l.02 5.98m0 4v6m0 3.98v6m0 3.98v6m0 4v5.98m0 4v5.98m0 4v6m0 3.98v6m0 3.98v6m0 4v5.98m0 4v5.98m0 4v6m0 3.98v6m0 4v5.98m0 4v5.98m0 4v5.98m0 4v6m0 3.98v6m0 4v5.98m.02 4v5.98m0 4v6m0 3.98v6m0 3.98v6m0 4v5.98m0 4v5.98m0 4v6m0 3.98v6m0 3.98v6m0 4v5.98m0 4v5.98m0 4v6m0 3.98v6m0 3.98v3l-.07.94-.22.9-.25.62m-2.16 2.54l-.58.35-.87.36-.9.23h-3.02m-4 0h-6.03m-4 0h-6.03m-4 0h-6.03m-4 0h-6.03m-4 0h-6.02m-4 0h-6.03m-4 0h-6.03m-4 0h-6.03m-4.02 0h-6.02m-4.02 0h-6m-4.03 0h-6m-4.02 0h-6m-4.03 0h-6m-4.03 0h-6m-4.03 0h-6.02m-4.02 0h-6.02m-4 0h-6.03m-4 0h-6.02m-4 0h-6.03m-4 0h-6.03m-4 0h-6.03m-4.02 0h-6.02m-4 0h-6.03m-4 0h-6.03m-4 0h-6.03m-4 0h-6.03m-4 0h-6.03m-4 0h-6.02m-4 0h-6.03m-4 0h-6.03m-4 0h-6.03m-4.02 0h-6.02m-4 0h-6.03m-4 .02h-6.03m-4 0h-6.03m-4 0h-6.03m-4 0h-6.03m-4 0h-6.02m-4 0h-6.03m-4 0h-6.03m-4 0h-6.03m-4.02 0h-6.02m-4.02 0h-6m-4.03 0h-6m-4.02 0h-6m-4.03 0h-6m-4.03 0h-6m-4.03 0h-6.02m-4.02 0h-6.02m-4 0h-6.03m-4 0h-6.02m-4 0h-6.03m-4 0h-6.03m-4 0h-6.03m-4.02 0h-6.02m-4 0h-6.03m-4 0h-6.03m-4 0h-6.03m-4 0h-6.03m-4 0h-6.03m-4 0h-6.02m-4 0h-6.03m-4 0h-6.03m-4 0h-6.03m-4.02 0h-6.02m-4 0h-6.03m-4 0h-6.03m-4 0h-6.03m-4 .02h-6.03m-4 0h-6.03m-4 0h-6.02m-4 0h-6.03m-4 0h-6.03m-4 0h-6.03m-4.02 0h-6.02m-4 0h-6.03m-4.02 0h-6m-4.02 0h-6m-4.03 0h-6m-4.03 0h-6m-4.03 0h-6.02m-4.02 0h-6m-4.03 0h-6.02m-4 0h-6.02m-4 0h-6.03m-4 0h-6.03m-4 0h-6.03m-4.02 0h-6.02m-4 0h-6.03m-4 0h-6.03m-4 0h-6.03m-4 0h-6.03m-4 0h-6.03m-4 0h-6.02m-4 0h-6.03m-4 0h-6.03m-4 0h-6.03m-4.02 0h-6.02m-4 0h-6.03m-4 0h-6.03m-4 0h-6.03m-4 0h-6.03m-4 0h-6.03m-4 .02h-6.02m-4 0h-6.03m-4 0h-6.03m-4 0h-6.03m-4.02 0h-6.02m-4 0h-6.03m-4 0h-6.03m-4.02 0h-6m-4.03 0h-6m-4.03 0h-6m-4.03 0h-6.02m-4.02 0h-6m-4.03 0h-6m-4.03 0h-6.02m-4 0h-6.03m-4 0H15.8m-4 0H5.78m-4.02 0h-6.02m-4 0h-6.03m-4 0h-6.03m-4 0h-6.03m-4 0h-6.03m-4 0h-6.03m-4 0h-6.02m-4 0h-6.03m-4 0h-6.03m-4 0h-3.02l-.94-.07-.9-.22-.62-.25m-2.54-2.16l-.35-.58-.36-.87-.23-.9v-3m0-4v-6m0-3.98v-6m0-4V982m0-4v-6m0-4v-5.98m0-4v-5.98m0-4v-6m0-3.98v-6m0-3.98v-6m0-4v-5.98m0-4v-5.98m0-4v-6m0-3.98v-6m0-3.98v-6m0-4v-5.98m0-4v-5.98m0-4l-.02-6m0-3.98v-6m0-4v-5.98m0-4v-5.98m0-4v-5.98m0-4v-6m0-3.98v-6m0-4v-5.98m0-4v-5.98m0-4v-5.98m0-4v-6m0-3.98v-6m0-4v-5.98m0-4v-5.98m0-4v-6m0-3.98v-6m0-3.98v-6m0-4v-5.98m0-4l-.02-5.98m0-4v-6m0-3.98v-6m0-3.98v-6m0-4v-5.98m0-4v-5.98m0-4v-6m0-3.98v-6m0-3.98v-6m0-4v-5.98m0-4v-5.98m0-4v-6m0-3.98v-6m0-4v-5.98m0-4v-5.98m0-4v-5.98m0-4v-6m0-3.98v-6m0-4v-5.98m-.02-4v-5.98m0-4v-6m0-3.98v-6m0-3.98v-6m0-4v-5.98m0-4v-5.98m0-4v-6m0-3.98v-6m0-3.98v-6m0-4v-5.98m0-4v-5.98m0-4v-6m0-3.98v-6m0-3.98v-3l.07-.94.22-.9.25-.62" stroke="#3a414a" stroke-width="2" fill="none"/><path d="M-97.5 690h20m15 0h20m15 0h20m15 0h20m15 0h20m15 0h20m15 0h20m15 0h20m15 0h20m15 0h20m15 0h20m15 0h20m15 0h20m15 0h20m15 0h20m15 0h20m15 0h20m15 0h20m15 0h20m15 0h20m15 0h20m15 0h20m15 0h20m15 0h20m15 0h20m15 0h20m15 0h20m15 0h20m15 0h20m15 0h20m15 0h20m15 0h20m15 0h20m15 0h20m15 0h20m15 0h20m15 0h20m15 0h20" fill="none"/><path d="M-97.5 690h3m4 0h6m4 0h3m15 0h3m4 0h6m4 0h3m15 0h3m4 0h6m4 0h3m15 0h3m4 0h6m4 0h3m15 0h3m4 0h6m4 0h3m15 0h3m4 0h6m4 0h3m15 0h3m4 0h6m4 0h3m15 0h3m4 0h6m4 0h3m15 0h3m4 0h6m4 0h3m15 0h3m4 0h6m4 0h3m15 0h3m4 0h6m4 0h3m15 0h3m4 0h6m4 0h3m15 0h3m4 0h6m4 0h3m15 0h3m4 0h6m4 0h3m15 0h3m4 0h6m4 0h3m15 0h3m4 0h6m4 0h3m15 0h3m4 0h6m4 0h3m15 0h3m4 0h6m4 0h3m15 0h3m4 0h6m4 0h3m15 0h3m4 0h6m4 0h3m15 0h3m4 0h6m4 0h3m15 0h3m4 0h6m4 0h3m15 0h3m4 0h6m4 0h3m15 0h3m4 0h6m4 0h3m15 0h3m4 0h6m4 0h3m15 0h3m4 0h6m4 0h3m15 0h3m4 0h6m4 0h3m15 0h3m4 0h6m4 0h3m15 0h3m4 0h6m4 0h3m15 0h3m4 0h6m4 0h3m15 0h3m4 0h6m4 0h3m15 0h3m4 0h6m4 0h3m15 0h3m4 0h6m4 0h3m15 0h3m4 0h6m4 0h3m15 0h3m4 0h6m4 0h3m15 0h3m4 0h6m4 0h3m15 0h3m4 0h6m4 0h3m15 0h3m4 0h6m4 0h3" stroke="#3a414a" stroke-width="2" fill="none"/><g><use xlink:href="#F" transform="matrix(1,0,0,1,-89.5,340) translate(0 19.444444444444443)"/></g><g><use xlink:href="#G" transform="matrix(1,0,0,1,-85.5,378) translate(0 19.444444444444443)"/><use xlink:href="#H" transform="matrix(1,0,0,1,-85.5,378) translate(30.864197530864196 19.444444444444443)"/><use xlink:href="#I" transform="matrix(1,0,0,1,-85.5,378) translate(108.5185185185185 19.444444444444443)"/><use xlink:href="#J" transform="matrix(1,0,0,1,-85.5,378) translate(166.48148148148147 19.444444444444443)"/><use xlink:href="#K" transform="matrix(1,0,0,1,-85.5,378) translate(197.34567901234567 19.444444444444443)"/><use xlink:href="#L" transform="matrix(1,0,0,1,-85.5,378) translate(233.14814814814815 19.444444444444443)"/></g><g><use xlink:href="#M" transform="matrix(1,0,0,1,-85.5,698) translate(0 19.444444444444443)"/><use xlink:href="#N" transform="matrix(1,0,0,1,-85.5,698) translate(12.345679012345679 19.444444444444443)"/></g><path d="M585.95 740.38h-4.98v-1h4.98zm14.92 0h-9.95v-1h9.95zm14.92 0h-9.96v-1h9.95zm14.9 0h-9.94v-1h9.95zm14.93 0h-9.95v-1h9.95zm14.92 0h-9.95v-1h9.95zm14.92 0h-9.95v-1h9.95zm8.1 0h-3.13v-1h3.14zm96.22 0h-9.9v-1h9.9zm14.82 0h-9.9v-1h9.9zm14.83 0h-9.88v-1h9.88zm14.84 0h-9.9v-1h9.9zm14.82 0h-9.9v-1h9.9zm14.83 0h-9.9v-1h9.9zm14.83 0h-9.9v-1h9.9zm14.83 0h-9.87v-1h9.88zm14.85 0h-9.9v-1h9.9zm14.83 0h-9.9v-1h9.9zm9.9 0h-4.96v-1h4.95zm-158.22 0h-.64v-1h.64z" stroke="#3a414a" stroke-width=".05" fill="#3a414a"/><path d="M581 740.38h-.53v-1h.52z" fill="#3a414a"/><path d="M581 740.4h-.55v-1.04h.56zm-.5-1v.96h.46v-.95z" stroke="#3a414a" stroke-width=".05" fill="#3a414a"/><path d="M937.93 739.88l-14.26 4.64v-9.28z" fill="#3a414a"/><path d="M939.55 739.88l-16.38 5.32v-10.64zm-15.38 3.95l12.15-3.95-12.15-3.95z" stroke="#3a414a" stroke-width=".05" fill="#3a414a"/><g><use xlink:href="#O" transform="matrix(1,0,0,1,683.5770936038807,729.2135727060603) translate(0 14.222222222222223)"/><use xlink:href="#P" transform="matrix(1,0,0,1,683.5770936038807,729.2135727060603) translate(48.296296296296305 14.222222222222223)"/></g><path d="M596.86 812H939.07" stroke="#3a414a" fill="none"/><path d="M582.1 812l14.26-4.62v9.27z" stroke="#3a414a" fill="#3a414a"/><path d="M939.57 812.5h-.52v-1h.52z" stroke="#3a414a" stroke-width=".05" fill="#3a414a"/><g><use xlink:href="#Q" transform="matrix(1,0,0,1,686.6912988124903,786.6774824767924) translate(0 14.222222222222223)"/><use xlink:href="#h" transform="matrix(1,0,0,1,686.6912988124903,786.6774824767924) translate(82.71604938271605 14.222222222222223)"/><use xlink:href="#R" transform="matrix(1,0,0,1,686.6912988124903,786.6774824767924) translate(114.22222222222223 14.222222222222223)"/></g><defs><path d="M30-248c87 1 191-15 191 75 0 78-77 80-158 76V0H30v-248zm33 125c57 0 124 11 124-50 0-59-68-47-124-48v98" id="S"/><path d="M24 0v-261h32V0H24" id="T"/><path d="M141-36C126-15 110 5 73 4 37 3 15-17 15-53c-1-64 63-63 125-63 3-35-9-54-41-54-24 1-41 7-42 31l-33-3c5-37 33-52 76-52 45 0 72 20 72 64v82c-1 20 7 32 28 27v20c-31 9-61-2-59-35zM48-53c0 20 12 33 32 33 41-3 63-29 60-74-43 2-92-5-92 41" id="U"/><path d="M59-47c-2 24 18 29 38 22v24C64 9 27 4 27-40v-127H5v-23h24l9-43h21v43h35v23H59v120" id="V"/><path d="M100-194c62-1 85 37 85 99 1 63-27 99-86 99S16-35 15-95c0-66 28-99 85-99zM99-20c44 1 53-31 53-75 0-43-8-75-51-75s-53 32-53 75 10 74 51 75" id="W"/><path d="M117-194c89-4 53 116 60 194h-32v-121c0-31-8-49-39-48C34-167 62-67 57 0H25l-1-190h30c1 10-1 24 2 32 11-22 29-35 61-36" id="X"/><path d="M24-231v-30h32v30H24zM24 0v-190h32V0H24" id="Y"/><path d="M177-190C167-65 218 103 67 71c-23-6-38-20-44-43l32-5c15 47 100 32 89-28v-30C133-14 115 1 83 1 29 1 15-40 15-95c0-56 16-97 71-98 29-1 48 16 59 35 1-10 0-23 2-32h30zM94-22c36 0 50-32 50-73 0-42-14-75-50-75-39 0-46 34-46 75s6 73 46 73" id="Z"/><g id="a"><use transform="matrix(0.05,0,0,0.05,0,0)" xlink:href="#S"/><use transform="matrix(0.05,0,0,0.05,12,0)" xlink:href="#T"/><use transform="matrix(0.05,0,0,0.05,15.949999999999998,0)" xlink:href="#U"/><use transform="matrix(0.05,0,0,0.05,25.950000000000003,0)" xlink:href="#V"/><use transform="matrix(0.05,0,0,0.05,30.950000000000003,0)" xlink:href="#W"/><use transform="matrix(0.05,0,0,0.05,40.95,0)" xlink:href="#W"/><use transform="matrix(0.05,0,0,0.05,50.95,0)" xlink:href="#X"/><use transform="matrix(0.05,0,0,0.05,60.95,0)" xlink:href="#Y"/><use transform="matrix(0.05,0,0,0.05,64.9,0)" xlink:href="#X"/><use transform="matrix(0.05,0,0,0.05,74.9,0)" xlink:href="#Z"/><path d="M-.9 1.25h91.7v1.32H-.9z"/></g><path d="M127-220V0H93v-220H8v-28h204v28h-85" id="aa"/><path d="M114-163C36-179 61-72 57 0H25l-1-190h30c1 12-1 29 2 39 6-27 23-49 58-41v29" id="ab"/><path d="M84 4C-5 8 30-112 23-190h32v120c0 31 7 50 39 49 72-2 45-101 50-169h31l1 190h-30c-1-10 1-25-2-33-11 22-28 36-60 37" id="ac"/><path d="M96-169c-40 0-48 33-48 73s9 75 48 75c24 0 41-14 43-38l32 2c-6 37-31 61-74 61-59 0-76-41-82-99-10-93 101-131 147-64 4 7 5 14 7 22l-32 3c-4-21-16-35-41-35" id="ad"/><path d="M143 0L79-87 56-68V0H24v-261h32v163l83-92h37l-77 82L181 0h-38" id="ae"/><path d="M135-143c-3-34-86-38-87 0 15 53 115 12 119 90S17 21 10-45l28-5c4 36 97 45 98 0-10-56-113-15-118-90-4-57 82-63 122-42 12 7 21 19 24 35" id="af"/><g id="b"><use transform="matrix(0.05,0,0,0.05,0,0)" xlink:href="#aa"/><use transform="matrix(0.05,0,0,0.05,10.3,0)" xlink:href="#ab"/><use transform="matrix(0.05,0,0,0.05,16.25,0)" xlink:href="#ac"/><use transform="matrix(0.05,0,0,0.05,26.25,0)" xlink:href="#ad"/><use transform="matrix(0.05,0,0,0.05,35.25,0)" xlink:href="#ae"/><use transform="matrix(0.05,0,0,0.05,44.25,0)" xlink:href="#af"/><path d="M-.9 1.25h55.05v1.32H-.9z"/></g><path fill="#3a414a" d="M205 0l-28-72H64L36 0H1l101-248h38L239 0h-34zm-38-99l-47-123c-12 45-31 82-46 123h93" id="ag"/><path fill="#3a414a" d="M96-169c-40 0-48 33-48 73s9 75 48 75c24 0 41-14 43-38l32 2c-6 37-31 61-74 61-59 0-76-41-82-99-10-93 101-131 147-64 4 7 5 14 7 22l-32 3c-4-21-16-35-41-35" id="ah"/><path fill="#3a414a" d="M59-47c-2 24 18 29 38 22v24C64 9 27 4 27-40v-127H5v-23h24l9-43h21v43h35v23H59v120" id="ai"/><path fill="#3a414a" d="M100-194c62-1 85 37 85 99 1 63-27 99-86 99S16-35 15-95c0-66 28-99 85-99zM99-20c44 1 53-31 53-75 0-43-8-75-51-75s-53 32-53 75 10 74 51 75" id="aj"/><path fill="#3a414a" d="M114-163C36-179 61-72 57 0H25l-1-190h30c1 12-1 29 2 39 6-27 23-49 58-41v29" id="ak"/><g id="c"><use transform="matrix(0.06172839506172839,0,0,0.06172839506172839,0,0)" xlink:href="#ag"/><use transform="matrix(0.06172839506172839,0,0,0.06172839506172839,14.814814814814813,0)" xlink:href="#ah"/><use transform="matrix(0.06172839506172839,0,0,0.06172839506172839,25.925925925925924,0)" xlink:href="#ai"/><use transform="matrix(0.06172839506172839,0,0,0.06172839506172839,32.098765432098766,0)" xlink:href="#aj"/><use transform="matrix(0.06172839506172839,0,0,0.06172839506172839,44.44444444444444,0)" xlink:href="#ak"/></g><path d="M185-189c-5-48-123-54-124 2 14 75 158 14 163 119 3 78-121 87-175 55-17-10-28-26-33-46l33-7c5 56 141 63 141-1 0-78-155-14-162-118-5-82 145-84 179-34 5 7 8 16 11 25" id="al"/><path d="M100-194c63 0 86 42 84 106H49c0 40 14 67 53 68 26 1 43-12 49-29l28 8c-11 28-37 45-77 45C44 4 14-33 15-96c1-61 26-98 85-98zm52 81c6-60-76-77-97-28-3 7-6 17-6 28h103" id="am"/><path d="M108 0H70L1-190h34L89-25l56-165h34" id="an"/><g id="d"><use transform="matrix(0.05,0,0,0.05,0,0)" xlink:href="#al"/><use transform="matrix(0.05,0,0,0.05,12,0)" xlink:href="#am"/><use transform="matrix(0.05,0,0,0.05,22,0)" xlink:href="#ab"/><use transform="matrix(0.05,0,0,0.05,27.950000000000003,0)" xlink:href="#an"/><use transform="matrix(0.05,0,0,0.05,36.95,0)" xlink:href="#am"/><use transform="matrix(0.05,0,0,0.05,46.95,0)" xlink:href="#ab"/><path d="M-.9 1.25h54.7v1.32H-.9z"/></g><path fill="#333" d="M24 0v-248h52V0H24" id="ao"/><path fill="#333" d="M135-194c87-1 58 113 63 194h-50c-7-57 23-157-34-157-59 0-34 97-39 157H25l-1-190h47c2 12-1 28 3 38 12-26 28-41 61-42" id="ap"/><path fill="#333" d="M190-63c-7 42-38 67-86 67-59 0-84-38-90-98-12-110 154-137 174-36l-49 2c-2-19-15-32-35-32-30 0-35 28-38 64-6 74 65 87 74 30" id="aq"/><path fill="#333" d="M110-194c64 0 96 36 96 99 0 64-35 99-97 99-61 0-95-36-95-99 0-62 34-99 96-99zm-1 164c35 0 45-28 45-65 0-40-10-65-43-65-34 0-45 26-45 65 0 36 10 65 43 65" id="ar"/><path fill="#333" d="M220-157c-53 9-28 100-34 157h-49v-107c1-27-5-49-29-50C55-147 81-57 75 0H25l-1-190h47c2 12-1 28 3 38 10-53 101-56 108 0 13-22 24-43 59-42 82 1 51 116 57 194h-49v-107c-1-25-5-48-29-50" id="as"/><path fill="#333" d="M25-224v-37h50v37H25zM25 0v-190h50V0H25" id="at"/><path fill="#333" d="M195-6C206 82 75 100 31 46c-4-6-6-13-8-21l49-6c3 16 16 24 34 25 40 0 42-37 40-79-11 22-30 35-61 35-53 0-70-43-70-97 0-56 18-96 73-97 30 0 46 14 59 34l2-30h47zm-90-29c32 0 41-27 41-63 0-35-9-62-40-62-32 0-39 29-40 63 0 36 9 62 39 62" id="au"/><g id="e"><use transform="matrix(0.04938271604938272,0,0,0.04938271604938272,0,0)" xlink:href="#ao"/><use transform="matrix(0.04938271604938272,0,0,0.04938271604938272,4.938271604938272,0)" xlink:href="#ap"/><use transform="matrix(0.04938271604938272,0,0,0.04938271604938272,15.753086419753087,0)" xlink:href="#aq"/><use transform="matrix(0.04938271604938272,0,0,0.04938271604938272,25.629629629629633,0)" xlink:href="#ar"/><use transform="matrix(0.04938271604938272,0,0,0.04938271604938272,36.44444444444445,0)" xlink:href="#as"/><use transform="matrix(0.04938271604938272,0,0,0.04938271604938272,52.24691358024692,0)" xlink:href="#at"/><use transform="matrix(0.04938271604938272,0,0,0.04938271604938272,57.18518518518519,0)" xlink:href="#ap"/><use transform="matrix(0.04938271604938272,0,0,0.04938271604938272,68,0)" xlink:href="#au"/></g><path fill="#333" d="M128 0H69L1-190h53L99-40l48-150h52" id="av"/><path fill="#333" d="M185-48c-13 30-37 53-82 52C43 2 14-33 14-96s30-98 90-98c62 0 83 45 84 108H66c0 31 8 55 39 56 18 0 30-7 34-22zm-45-69c5-46-57-63-70-21-2 6-4 13-4 21h74" id="aw"/><path fill="#333" d="M114-157C55-157 80-60 75 0H25v-261h50l-1 109c12-26 28-41 61-42 86-1 58 113 63 194h-50c-7-57 23-157-34-157" id="ax"/><path fill="#333" d="M25 0v-261h50V0H25" id="ay"/><path fill="#333" d="M137-138c1-29-70-34-71-4 15 46 118 7 119 86 1 83-164 76-172 9l43-7c4 19 20 25 44 25 33 8 57-30 24-41C81-84 22-81 20-136c-2-80 154-74 161-7" id="az"/><g id="f"><use transform="matrix(0.04938271604938272,0,0,0.04938271604938272,0,0)" xlink:href="#av"/><use transform="matrix(0.04938271604938272,0,0,0.04938271604938272,9.876543209876544,0)" xlink:href="#aw"/><use transform="matrix(0.04938271604938272,0,0,0.04938271604938272,19.75308641975309,0)" xlink:href="#ax"/><use transform="matrix(0.04938271604938272,0,0,0.04938271604938272,30.567901234567906,0)" xlink:href="#at"/><use transform="matrix(0.04938271604938272,0,0,0.04938271604938272,35.50617283950618,0)" xlink:href="#aq"/><use transform="matrix(0.04938271604938272,0,0,0.04938271604938272,45.38271604938272,0)" xlink:href="#ay"/><use transform="matrix(0.04938271604938272,0,0,0.04938271604938272,50.320987654320994,0)" xlink:href="#aw"/><use transform="matrix(0.04938271604938272,0,0,0.04938271604938272,60.19753086419754,0)" xlink:href="#az"/></g><path fill="#333" d="M67-125c0 53 21 87 73 88 37 1 54-22 65-47l45 17C233-25 199 4 140 4 58 4 20-42 15-125 8-235 124-281 211-232c18 10 29 29 36 50l-46 12c-8-25-30-41-62-41-52 0-71 34-72 86" id="aA"/><path fill="#333" d="M147 0L96-86 75-71V0H25v-261h50v150l67-79h53l-66 74L201 0h-54" id="aB"/><g id="g"><use transform="matrix(0.04938271604938272,0,0,0.04938271604938272,0,0)" xlink:href="#aA"/><use transform="matrix(0.04938271604938272,0,0,0.04938271604938272,12.790123456790125,0)" xlink:href="#ax"/><use transform="matrix(0.04938271604938272,0,0,0.04938271604938272,23.60493827160494,0)" xlink:href="#aw"/><use transform="matrix(0.04938271604938272,0,0,0.04938271604938272,33.48148148148148,0)" xlink:href="#aq"/><use transform="matrix(0.04938271604938272,0,0,0.04938271604938272,43.358024691358025,0)" xlink:href="#aB"/><use transform="matrix(0.04938271604938272,0,0,0.04938271604938272,53.23456790123457,0)" xlink:href="#az"/></g><path fill="#333" d="M115-3C79 11 28 4 28-45v-112H4v-33h27l15-45h31v45h36v33H77v99c-1 23 16 31 38 25v30" id="aC"/><g id="h"><use transform="matrix(0.04938271604938272,0,0,0.04938271604938272,0,0)" xlink:href="#aC"/><use transform="matrix(0.04938271604938272,0,0,0.04938271604938272,5.8765432098765435,0)" xlink:href="#ax"/><use transform="matrix(0.04938271604938272,0,0,0.04938271604938272,16.691358024691358,0)" xlink:href="#aw"/></g><path fill="#333" d="M85 4C-2 5 27-109 22-190h50c7 57-23 150 33 157 60-5 35-97 40-157h50l1 190h-47c-2-12 1-28-3-38-12 25-28 42-61 42" id="aD"/><path fill="#333" d="M133-34C117-15 103 5 69 4 32 3 11-16 11-54c-1-60 55-63 116-61 1-26-3-47-28-47-18 1-26 9-28 27l-52-2c7-38 36-58 82-57s74 22 75 68l1 82c-1 14 12 18 25 15v27c-30 8-71 5-69-32zm-48 3c29 0 43-24 42-57-32 0-66-3-65 30 0 17 8 27 23 27" id="aE"/><g id="i"><use transform="matrix(0.04938271604938272,0,0,0.04938271604938272,0,0)" xlink:href="#az"/><use transform="matrix(0.04938271604938272,0,0,0.04938271604938272,9.876543209876544,0)" xlink:href="#at"/><use transform="matrix(0.04938271604938272,0,0,0.04938271604938272,14.814814814814817,0)" xlink:href="#aC"/><use transform="matrix(0.04938271604938272,0,0,0.04938271604938272,20.69135802469136,0)" xlink:href="#aD"/><use transform="matrix(0.04938271604938272,0,0,0.04938271604938272,31.506172839506174,0)" xlink:href="#aE"/><use transform="matrix(0.04938271604938272,0,0,0.04938271604938272,41.38271604938272,0)" xlink:href="#aC"/><use transform="matrix(0.04938271604938272,0,0,0.04938271604938272,47.25925925925927,0)" xlink:href="#at"/><use transform="matrix(0.04938271604938272,0,0,0.04938271604938272,52.19753086419754,0)" xlink:href="#ar"/><use transform="matrix(0.04938271604938272,0,0,0.04938271604938272,63.01234567901235,0)" xlink:href="#ap"/></g><g id="j"><use transform="matrix(0.04938271604938272,0,0,0.04938271604938272,0,0)" xlink:href="#av"/><use transform="matrix(0.04938271604938272,0,0,0.04938271604938272,9.876543209876544,0)" xlink:href="#aw"/><use transform="matrix(0.04938271604938272,0,0,0.04938271604938272,19.75308641975309,0)" xlink:href="#ax"/><use transform="matrix(0.04938271604938272,0,0,0.04938271604938272,30.567901234567906,0)" xlink:href="#at"/><use transform="matrix(0.04938271604938272,0,0,0.04938271604938272,35.50617283950618,0)" xlink:href="#aq"/><use transform="matrix(0.04938271604938272,0,0,0.04938271604938272,45.38271604938272,0)" xlink:href="#ay"/><use transform="matrix(0.04938271604938272,0,0,0.04938271604938272,50.320987654320994,0)" xlink:href="#aw"/></g><path fill="#333" d="M169-182c-1-43-94-46-97-3 18 66 151 10 154 114 3 95-165 93-204 36-6-8-10-19-12-30l50-8c3 46 112 56 116 5-17-69-150-10-154-114-4-87 153-88 188-35 5 8 8 18 10 28" id="aF"/><path fill="#333" d="M88-194c31-1 46 15 58 34l-1-101h50l1 261h-48c-2-10 0-23-3-31C134-8 116 4 84 4 32 4 16-41 15-95c0-56 19-97 73-99zm17 164c33 0 40-30 41-66 1-37-9-64-41-64s-38 30-39 65c0 43 13 65 39 65" id="aG"/><g id="k"><use transform="matrix(0.04938271604938272,0,0,0.04938271604938272,0,0)" xlink:href="#aF"/><use transform="matrix(0.04938271604938272,0,0,0.04938271604938272,11.851851851851853,0)" xlink:href="#aw"/><use transform="matrix(0.04938271604938272,0,0,0.04938271604938272,21.7283950617284,0)" xlink:href="#ap"/><use transform="matrix(0.04938271604938272,0,0,0.04938271604938272,32.543209876543216,0)" xlink:href="#aG"/><use transform="matrix(0.04938271604938272,0,0,0.04938271604938272,43.35802469135803,0)" xlink:href="#az"/></g><g id="l"><use transform="matrix(0.04938271604938272,0,0,0.04938271604938272,0,0)" xlink:href="#aG"/><use transform="matrix(0.04938271604938272,0,0,0.04938271604938272,10.814814814814815,0)" xlink:href="#aE"/><use transform="matrix(0.04938271604938272,0,0,0.04938271604938272,20.69135802469136,0)" xlink:href="#aC"/><use transform="matrix(0.04938271604938272,0,0,0.04938271604938272,26.567901234567902,0)" xlink:href="#aE"/></g><path fill="#333" d="M199 0l-22-63H83L61 0H9l90-248h61L250 0h-51zm-33-102l-36-108c-10 38-24 72-36 108h72" id="aH"/><path fill="#333" d="M135-150c-39-12-60 13-60 57V0H25l-1-190h47c2 13-1 29 3 40 6-28 27-53 61-41v41" id="aI"/><g id="m"><use transform="matrix(0.04938271604938272,0,0,0.04938271604938272,0,0)" xlink:href="#aH"/><use transform="matrix(0.04938271604938272,0,0,0.04938271604938272,12.790123456790125,0)" xlink:href="#ay"/><use transform="matrix(0.04938271604938272,0,0,0.04938271604938272,17.7283950617284,0)" xlink:href="#aE"/><use transform="matrix(0.04938271604938272,0,0,0.04938271604938272,27.604938271604947,0)" xlink:href="#aI"/><use transform="matrix(0.04938271604938272,0,0,0.04938271604938272,34.518518518518526,0)" xlink:href="#aC"/></g><g id="n"><use transform="matrix(0.04938271604938272,0,0,0.04938271604938272,0,0)" xlink:href="#aE"/><use transform="matrix(0.04938271604938272,0,0,0.04938271604938272,9.876543209876544,0)" xlink:href="#ay"/><use transform="matrix(0.04938271604938272,0,0,0.04938271604938272,14.814814814814817,0)" xlink:href="#ay"/></g><g id="o"><use transform="matrix(0.04938271604938272,0,0,0.04938271604938272,0,0)" xlink:href="#aC"/><use transform="matrix(0.04938271604938272,0,0,0.04938271604938272,5.8765432098765435,0)" xlink:href="#ax"/><use transform="matrix(0.04938271604938272,0,0,0.04938271604938272,16.691358024691358,0)" xlink:href="#aw"/></g><path fill="#333" d="M135-194c53 0 70 44 70 98 0 56-19 98-73 100-31 1-45-17-59-34 3 33 2 69 2 105H25l-1-265h48c2 10 0 23 3 31 11-24 29-35 60-35zM114-30c33 0 39-31 40-66 0-38-9-64-40-64-56 0-55 130 0 130" id="aJ"/><g id="p"><use transform="matrix(0.04938271604938272,0,0,0.04938271604938272,0,0)" xlink:href="#aJ"/><use transform="matrix(0.04938271604938272,0,0,0.04938271604938272,10.814814814814815,0)" xlink:href="#ay"/><use transform="matrix(0.04938271604938272,0,0,0.04938271604938272,15.753086419753087,0)" xlink:href="#aE"/><use transform="matrix(0.04938271604938272,0,0,0.04938271604938272,25.629629629629633,0)" xlink:href="#aC"/><use transform="matrix(0.04938271604938272,0,0,0.04938271604938272,31.506172839506174,0)" xlink:href="#ar"/><use transform="matrix(0.04938271604938272,0,0,0.04938271604938272,42.320987654320994,0)" xlink:href="#ar"/><use transform="matrix(0.04938271604938272,0,0,0.04938271604938272,53.135802469135804,0)" xlink:href="#ap"/><use transform="matrix(0.04938271604938272,0,0,0.04938271604938272,63.95061728395062,0)" xlink:href="#at"/><use transform="matrix(0.04938271604938272,0,0,0.04938271604938272,68.8888888888889,0)" xlink:href="#ap"/><use transform="matrix(0.04938271604938272,0,0,0.04938271604938272,79.70370370370371,0)" xlink:href="#au"/></g><g id="q"><use transform="matrix(0.04938271604938272,0,0,0.04938271604938272,0,0)" xlink:href="#aC"/><use transform="matrix(0.04938271604938272,0,0,0.04938271604938272,5.8765432098765435,0)" xlink:href="#aI"/><use transform="matrix(0.04938271604938272,0,0,0.04938271604938272,12.790123456790125,0)" xlink:href="#aD"/><use transform="matrix(0.04938271604938272,0,0,0.04938271604938272,23.604938271604937,0)" xlink:href="#aq"/><use transform="matrix(0.04938271604938272,0,0,0.04938271604938272,33.48148148148148,0)" xlink:href="#aB"/><use transform="matrix(0.04938271604938272,0,0,0.04938271604938272,43.358024691358025,0)" xlink:href="#az"/></g><g id="r"><use transform="matrix(0.04938271604938272,0,0,0.04938271604938272,0,0)" xlink:href="#at"/><use transform="matrix(0.04938271604938272,0,0,0.04938271604938272,4.938271604938272,0)" xlink:href="#ap"/><use transform="matrix(0.04938271604938272,0,0,0.04938271604938272,15.753086419753087,0)" xlink:href="#aq"/><use transform="matrix(0.04938271604938272,0,0,0.04938271604938272,25.629629629629633,0)" xlink:href="#aI"/><use transform="matrix(0.04938271604938272,0,0,0.04938271604938272,32.543209876543216,0)" xlink:href="#aw"/><use transform="matrix(0.04938271604938272,0,0,0.04938271604938272,42.41975308641976,0)" xlink:href="#az"/><use transform="matrix(0.04938271604938272,0,0,0.04938271604938272,52.2962962962963,0)" xlink:href="#aw"/></g><g id="s"><use transform="matrix(0.04938271604938272,0,0,0.04938271604938272,0,0)" xlink:href="#aJ"/><use transform="matrix(0.04938271604938272,0,0,0.04938271604938272,10.814814814814815,0)" xlink:href="#ay"/><use transform="matrix(0.04938271604938272,0,0,0.04938271604938272,15.753086419753087,0)" xlink:href="#aE"/><use transform="matrix(0.04938271604938272,0,0,0.04938271604938272,25.629629629629633,0)" xlink:href="#aC"/><use transform="matrix(0.04938271604938272,0,0,0.04938271604938272,31.506172839506174,0)" xlink:href="#ar"/><use transform="matrix(0.04938271604938272,0,0,0.04938271604938272,42.320987654320994,0)" xlink:href="#ar"/><use transform="matrix(0.04938271604938272,0,0,0.04938271604938272,53.135802469135804,0)" xlink:href="#ap"/><use transform="matrix(0.04938271604938272,0,0,0.04938271604938272,63.95061728395062,0)" xlink:href="#at"/><use transform="matrix(0.04938271604938272,0,0,0.04938271604938272,68.8888888888889,0)" xlink:href="#ap"/><use transform="matrix(0.04938271604938272,0,0,0.04938271604938272,79.70370370370371,0)" xlink:href="#au"/></g><g id="t"><use transform="matrix(0.04938271604938272,0,0,0.04938271604938272,0,0)" xlink:href="#aG"/><use transform="matrix(0.04938271604938272,0,0,0.04938271604938272,10.814814814814815,0)" xlink:href="#at"/><use transform="matrix(0.04938271604938272,0,0,0.04938271604938272,15.753086419753087,0)" xlink:href="#az"/><use transform="matrix(0.04938271604938272,0,0,0.04938271604938272,25.629629629629633,0)" xlink:href="#aC"/><use transform="matrix(0.04938271604938272,0,0,0.04938271604938272,31.506172839506174,0)" xlink:href="#aE"/><use transform="matrix(0.04938271604938272,0,0,0.04938271604938272,41.38271604938272,0)" xlink:href="#ap"/><use transform="matrix(0.04938271604938272,0,0,0.04938271604938272,52.19753086419754,0)" xlink:href="#aq"/><use transform="matrix(0.04938271604938272,0,0,0.04938271604938272,62.074074074074076,0)" xlink:href="#aw"/></g><g id="u"><use transform="matrix(0.04938271604938272,0,0,0.04938271604938272,0,0)" xlink:href="#av"/><use transform="matrix(0.04938271604938272,0,0,0.04938271604938272,9.876543209876544,0)" xlink:href="#aw"/><use transform="matrix(0.04938271604938272,0,0,0.04938271604938272,19.75308641975309,0)" xlink:href="#ax"/><use transform="matrix(0.04938271604938272,0,0,0.04938271604938272,30.567901234567906,0)" xlink:href="#at"/><use transform="matrix(0.04938271604938272,0,0,0.04938271604938272,35.50617283950618,0)" xlink:href="#aq"/><use transform="matrix(0.04938271604938272,0,0,0.04938271604938272,45.38271604938272,0)" xlink:href="#ay"/><use transform="matrix(0.04938271604938272,0,0,0.04938271604938272,50.320987654320994,0)" xlink:href="#aw"/></g><g id="v"><use transform="matrix(0.04938271604938272,0,0,0.04938271604938272,0,0)" xlink:href="#aq"/><use transform="matrix(0.04938271604938272,0,0,0.04938271604938272,9.876543209876544,0)" xlink:href="#aD"/><use transform="matrix(0.04938271604938272,0,0,0.04938271604938272,20.69135802469136,0)" xlink:href="#aC"/></g><path fill="#333" d="M135-194c52 0 70 43 70 98 0 56-19 99-73 100-30 1-46-15-58-35L72 0H24l1-261h50v104c11-23 29-37 60-37zM114-30c31 0 40-27 40-66 0-37-7-63-39-63s-41 28-41 65c0 36 8 64 40 64" id="aK"/><path fill="#333" d="M231 0h-52l-39-155L100 0H48L-1-190h46L77-45c9-52 24-97 36-145h53l37 145 32-145h46" id="aL"/><g id="w"><use transform="matrix(0.04938271604938272,0,0,0.04938271604938272,0,0)" xlink:href="#at"/><use transform="matrix(0.04938271604938272,0,0,0.04938271604938272,4.938271604938272,0)" xlink:href="#ap"/><use transform="matrix(0.04938271604938272,0,0,0.04938271604938272,15.753086419753087,0)" xlink:href="#aK"/><use transform="matrix(0.04938271604938272,0,0,0.04938271604938272,26.567901234567902,0)" xlink:href="#aw"/><use transform="matrix(0.04938271604938272,0,0,0.04938271604938272,36.44444444444444,0)" xlink:href="#aC"/><use transform="matrix(0.04938271604938272,0,0,0.04938271604938272,42.32098765432099,0)" xlink:href="#aL"/><use transform="matrix(0.04938271604938272,0,0,0.04938271604938272,56.14814814814815,0)" xlink:href="#aw"/><use transform="matrix(0.04938271604938272,0,0,0.04938271604938272,66.0246913580247,0)" xlink:href="#aw"/><use transform="matrix(0.04938271604938272,0,0,0.04938271604938272,75.90123456790124,0)" xlink:href="#ap"/></g><g id="x"><use transform="matrix(0.04938271604938272,0,0,0.04938271604938272,0,0)" xlink:href="#aJ"/><use transform="matrix(0.04938271604938272,0,0,0.04938271604938272,10.814814814814815,0)" xlink:href="#ay"/><use transform="matrix(0.04938271604938272,0,0,0.04938271604938272,15.753086419753087,0)" xlink:href="#aE"/><use transform="matrix(0.04938271604938272,0,0,0.04938271604938272,25.629629629629633,0)" xlink:href="#aC"/><use transform="matrix(0.04938271604938272,0,0,0.04938271604938272,31.506172839506174,0)" xlink:href="#ar"/><use transform="matrix(0.04938271604938272,0,0,0.04938271604938272,42.320987654320994,0)" xlink:href="#ar"/><use transform="matrix(0.04938271604938272,0,0,0.04938271604938272,53.135802469135804,0)" xlink:href="#ap"/><use transform="matrix(0.04938271604938272,0,0,0.04938271604938272,63.95061728395062,0)" xlink:href="#at"/><use transform="matrix(0.04938271604938272,0,0,0.04938271604938272,68.8888888888889,0)" xlink:href="#ap"/><use transform="matrix(0.04938271604938272,0,0,0.04938271604938272,79.70370370370371,0)" xlink:href="#au"/></g><g id="y"><use transform="matrix(0.04938271604938272,0,0,0.04938271604938272,0,0)" xlink:href="#aq"/><use transform="matrix(0.04938271604938272,0,0,0.04938271604938272,9.876543209876544,0)" xlink:href="#ar"/><use transform="matrix(0.04938271604938272,0,0,0.04938271604938272,20.69135802469136,0)" xlink:href="#ap"/><use transform="matrix(0.04938271604938272,0,0,0.04938271604938272,31.506172839506174,0)" xlink:href="#aC"/><use transform="matrix(0.04938271604938272,0,0,0.04938271604938272,37.38271604938272,0)" xlink:href="#at"/><use transform="matrix(0.04938271604938272,0,0,0.04938271604938272,42.320987654320994,0)" xlink:href="#ap"/><use transform="matrix(0.04938271604938272,0,0,0.04938271604938272,53.135802469135804,0)" xlink:href="#aD"/><use transform="matrix(0.04938271604938272,0,0,0.04938271604938272,63.95061728395062,0)" xlink:href="#aw"/><use transform="matrix(0.04938271604938272,0,0,0.04938271604938272,73.82716049382717,0)" xlink:href="#az"/></g><path fill="#333" d="M147 0H94L2-248h55l64 206c17-72 42-137 63-206h54" id="aM"/><g id="z"><use transform="matrix(0.04938271604938272,0,0,0.04938271604938272,0,0)" xlink:href="#aM"/><use transform="matrix(0.04938271604938272,0,0,0.04938271604938272,10.864197530864198,0)" xlink:href="#aw"/><use transform="matrix(0.04938271604938272,0,0,0.04938271604938272,20.74074074074074,0)" xlink:href="#ax"/><use transform="matrix(0.04938271604938272,0,0,0.04938271604938272,31.555555555555557,0)" xlink:href="#at"/><use transform="matrix(0.04938271604938272,0,0,0.04938271604938272,36.49382716049383,0)" xlink:href="#aq"/><use transform="matrix(0.04938271604938272,0,0,0.04938271604938272,46.370370370370374,0)" xlink:href="#ay"/><use transform="matrix(0.04938271604938272,0,0,0.04938271604938272,51.308641975308646,0)" xlink:href="#aw"/></g><path fill="#333" d="M123 10C108 53 80 86 19 72V37c35 8 53-11 59-39L3-190h52l48 148c12-52 28-100 44-148h51" id="aN"/><g id="A"><use transform="matrix(0.04938271604938272,0,0,0.04938271604938272,0,0)" xlink:href="#aJ"/><use transform="matrix(0.04938271604938272,0,0,0.04938271604938272,10.814814814814815,0)" xlink:href="#aE"/><use transform="matrix(0.04938271604938272,0,0,0.04938271604938272,20.69135802469136,0)" xlink:href="#az"/><use transform="matrix(0.04938271604938272,0,0,0.04938271604938272,30.567901234567906,0)" xlink:href="#az"/><use transform="matrix(0.04938271604938272,0,0,0.04938271604938272,40.44444444444445,0)" xlink:href="#aK"/><use transform="matrix(0.04938271604938272,0,0,0.04938271604938272,51.25925925925927,0)" xlink:href="#aN"/></g><path fill="#333" d="M178-136c88 48 22 151-73 140C49-3 12-15 4-64l51-9c1 50 111 53 115 3-16-63-132-20-133-112 0-93 190-91 199-10l-50 12c-4-41-93-50-97-4 7 38 59 32 89 48" id="aO"/><path fill="#333" d="M114-194c63-2 87 48 72 110H63c-3 28 1 55 31 54 21-1 32-13 37-29l44 13C160-14 137 4 91 4 41 4 11-22 11-73c0-71 33-119 103-121zm30 77c14-47-50-61-67-22-3 6-6 13-8 22h75" id="aP"/><path fill="#333" d="M102-194c32-2 46 14 56 35 2-10 4-23 8-31h48L161 75h-49l21-104C119-9 101 4 69 4 31 4 10-22 10-61c0-70 24-129 92-133zM63-82c-3 28 2 52 28 52 46-1 55-45 57-90 1-24-7-40-30-40-43 0-50 40-55 78" id="aQ"/><path fill="#333" d="M69 3c-96 0-34-126-28-193h49L65-57c6 42 62 18 71-6 14-38 17-86 28-127h50L178 0h-47c0-11 4-26 3-33-14 20-30 37-65 36" id="aR"/><path fill="#333" d="M151-194c95 0 34 128 28 194h-49l25-134c0-29-45-25-59-9C67-111 69-48 56 0H6l36-190h47l-4 32c15-20 33-36 66-36" id="aS"/><path fill="#333" d="M67-101c-8 29-7 73 27 71 23-2 32-16 39-37l48 9C170-19 141 4 91 4 36 4 7-28 12-86c6-75 61-124 140-103 26 7 40 29 43 59l-50 4c-1-20-9-34-29-34-35 0-41 29-49 59" id="aT"/><g id="B"><use transform="matrix(0.05555555555555555,0,0,0.05555555555555555,0,0)" xlink:href="#aO"/><use transform="matrix(0.05555555555555555,0,0,0.05555555555555555,13.333333333333332,0)" xlink:href="#aP"/><use transform="matrix(0.05555555555555555,0,0,0.05555555555555555,24.444444444444443,0)" xlink:href="#aQ"/><use transform="matrix(0.05555555555555555,0,0,0.05555555555555555,36.61111111111111,0)" xlink:href="#aR"/><use transform="matrix(0.05555555555555555,0,0,0.05555555555555555,48.77777777777777,0)" xlink:href="#aP"/><use transform="matrix(0.05555555555555555,0,0,0.05555555555555555,59.888888888888886,0)" xlink:href="#aS"/><use transform="matrix(0.05555555555555555,0,0,0.05555555555555555,72.05555555555556,0)" xlink:href="#aT"/><use transform="matrix(0.05555555555555555,0,0,0.05555555555555555,83.16666666666667,0)" xlink:href="#aP"/><path fill="#333" d="M-1 1.07h101.83v2.1H-1z"/></g><path fill="#333" d="M250-142C247-53 197 0 108 0H6l48-248c105-5 200 3 196 106zm-49 2c1-57-42-72-103-68L66-40c84 6 135-22 135-100" id="aU"/><path fill="#333" d="M50-224l7-37h49l-7 37H50zM6 0l37-190h49L55 0H6" id="aV"/><path fill="#333" d="M166-52c-4 17 5 29 24 23l-3 27c-30 11-74 1-67-34C105-15 91 4 56 4 23 4 3-15 2-49c0-64 63-67 128-67 10-22 3-53-29-45-13 3-22 10-25 24l-46-5c5-64 156-77 153 0-1 33-11 60-17 90zM97-88c-44-9-64 57-19 57 31 0 42-28 47-57H97" id="aW"/><path fill="#333" d="M45-171c29-32 103-29 114 14 2-11 5-23 8-33h47L176-2c-3 70-92 96-155 64C9 56 1 42-1 25l50-5c2 28 48 27 63 11 13-13 20-45 21-66-13 20-30 35-62 36-87 3-60-134-26-172zM94-35c41-3 55-43 55-86 0-24-12-39-35-39-43 0-51 48-51 90 0 22 9 37 31 35" id="aX"/><path fill="#333" d="M84-151c13-25 34-51 72-40l-8 41C67-170 71-64 56 0H6l36-190h47" id="aY"/><path fill="#333" d="M255-194c90 0 29 129 24 194h-49l25-136c-7-39-53-14-60 9-12 38-18 85-28 127h-49l25-136c2-29-39-23-50-7C69-108 68-47 56 0H6l36-190h48c-1 10-6 24-4 32 12-20 27-36 57-36s46 15 50 41c14-21 29-41 62-41" id="aZ"/><path fill="#333" d="M41-132l10-50h51l-10 50H41zM16 0l9-49h51L66 0H16" id="ba"/><g id="C"><use transform="matrix(0.05555555555555555,0,0,0.05555555555555555,0,0)" xlink:href="#aU"/><use transform="matrix(0.05555555555555555,0,0,0.05555555555555555,14.388888888888888,0)" xlink:href="#aV"/><use transform="matrix(0.05555555555555555,0,0,0.05555555555555555,19.944444444444443,0)" xlink:href="#aW"/><use transform="matrix(0.05555555555555555,0,0,0.05555555555555555,31.055555555555554,0)" xlink:href="#aX"/><use transform="matrix(0.05555555555555555,0,0,0.05555555555555555,43.22222222222222,0)" xlink:href="#aY"/><use transform="matrix(0.05555555555555555,0,0,0.05555555555555555,51,0)" xlink:href="#aW"/><use transform="matrix(0.05555555555555555,0,0,0.05555555555555555,62.11111111111112,0)" xlink:href="#aZ"/><use transform="matrix(0.05555555555555555,0,0,0.05555555555555555,79.88888888888889,0)" xlink:href="#ba"/><path fill="#333" d="M-1 1.07h94.06v2.1H-1z"/></g><path fill="#333" d="M6 0l48-248h52L58 0H6" id="bb"/><path fill="#333" d="M124-194c51 0 84 22 84 74C207-44 167 4 94 4 43 4 11-23 11-74c0-74 41-120 113-120zM99-30c46 0 58-42 58-86 0-27-11-44-37-44-44 0-55 40-57 84-1 27 10 45 36 46" id="bc"/><g id="D"><use transform="matrix(0.05555555555555555,0,0,0.05555555555555555,0,0)" xlink:href="#bb"/><use transform="matrix(0.05555555555555555,0,0,0.05555555555555555,5.555555555555555,0)" xlink:href="#aS"/><use transform="matrix(0.05555555555555555,0,0,0.05555555555555555,17.72222222222222,0)" xlink:href="#aT"/><use transform="matrix(0.05555555555555555,0,0,0.05555555555555555,28.833333333333332,0)" xlink:href="#bc"/><use transform="matrix(0.05555555555555555,0,0,0.05555555555555555,41,0)" xlink:href="#aZ"/><use transform="matrix(0.05555555555555555,0,0,0.05555555555555555,58.77777777777777,0)" xlink:href="#aV"/><use transform="matrix(0.05555555555555555,0,0,0.05555555555555555,64.33333333333333,0)" xlink:href="#aS"/><use transform="matrix(0.05555555555555555,0,0,0.05555555555555555,76.5,0)" xlink:href="#aX"/><path fill="#333" d="M-1 1.07h96.22v2.1H-1z"/></g><path fill="#333" d="M130 0H70L30-248h54l24 206c31-72 69-137 103-206h54" id="bd"/><path fill="#333" d="M150-105c8-23 8-54-22-51-68 7-54 98-72 156H6l50-261h50L85-158c15-20 33-36 66-36 95 0 34 128 28 194h-49" id="be"/><path fill="#333" d="M6 0l51-261h49L55 0H6" id="bf"/><path fill="#333" d="M144-137c-1-29-70-35-71-2 16 41 103 10 103 80C176 9 79 16 32-9 18-17 9-31 4-48l44-6c3 32 80 36 82 1-15-42-103-11-103-82 0-77 157-79 161-8" id="bg"/><g id="E"><use transform="matrix(0.05555555555555555,0,0,0.05555555555555555,0,0)" xlink:href="#bd"/><use transform="matrix(0.05555555555555555,0,0,0.05555555555555555,12.61111111111111,0)" xlink:href="#aP"/><use transform="matrix(0.05555555555555555,0,0,0.05555555555555555,23.72222222222222,0)" xlink:href="#be"/><use transform="matrix(0.05555555555555555,0,0,0.05555555555555555,35.888888888888886,0)" xlink:href="#aV"/><use transform="matrix(0.05555555555555555,0,0,0.05555555555555555,41.44444444444444,0)" xlink:href="#aT"/><use transform="matrix(0.05555555555555555,0,0,0.05555555555555555,52.55555555555556,0)" xlink:href="#bf"/><use transform="matrix(0.05555555555555555,0,0,0.05555555555555555,58.11111111111112,0)" xlink:href="#aP"/><use transform="matrix(0.05555555555555555,0,0,0.05555555555555555,69.22222222222223,0)" xlink:href="#bg"/><path fill="#333" d="M-1 1.07h82.33v2.1H-1z"/></g><path fill="#3a414a" d="M24 0v-261h32V0H24" id="bh"/><path fill="#3a414a" d="M100-194c63 0 86 42 84 106H49c0 40 14 67 53 68 26 1 43-12 49-29l28 8c-11 28-37 45-77 45C44 4 14-33 15-96c1-61 26-98 85-98zm52 81c6-60-76-77-97-28-3 7-6 17-6 28h103" id="bi"/><path fill="#3a414a" d="M117-194c89-4 53 116 60 194h-32v-121c0-31-8-49-39-48C34-167 62-67 57 0H25l-1-190h30c1 10-1 24 2 32 11-22 29-35 61-36" id="bj"/><path fill="#3a414a" d="M141-36C126-15 110 5 73 4 37 3 15-17 15-53c-1-64 63-63 125-63 3-35-9-54-41-54-24 1-41 7-42 31l-33-3c5-37 33-52 76-52 45 0 72 20 72 64v82c-1 20 7 32 28 27v20c-31 9-61-2-59-35zM48-53c0 20 12 33 32 33 41-3 63-29 60-74-43 2-92-5-92 41" id="bk"/><path fill="#3a414a" d="M24-231v-30h32v30H24zM24 0v-190h32V0H24" id="bl"/><path fill="#3a414a" d="M108 0H70L1-190h34L89-25l56-165h34" id="bm"/><g id="F"><use transform="matrix(0.06172839506172839,0,0,0.06172839506172839,0,0)" xlink:href="#ag"/><use transform="matrix(0.06172839506172839,0,0,0.06172839506172839,14.814814814814813,0)" xlink:href="#bh"/><use transform="matrix(0.06172839506172839,0,0,0.06172839506172839,19.691358024691354,0)" xlink:href="#ai"/><use transform="matrix(0.06172839506172839,0,0,0.06172839506172839,25.864197530864192,0)" xlink:href="#bi"/><use transform="matrix(0.06172839506172839,0,0,0.06172839506172839,38.20987654320987,0)" xlink:href="#ak"/><use transform="matrix(0.06172839506172839,0,0,0.06172839506172839,45.55555555555555,0)" xlink:href="#bj"/><use transform="matrix(0.06172839506172839,0,0,0.06172839506172839,57.90123456790123,0)" xlink:href="#bk"/><use transform="matrix(0.06172839506172839,0,0,0.06172839506172839,70.24691358024691,0)" xlink:href="#ai"/><use transform="matrix(0.06172839506172839,0,0,0.06172839506172839,76.41975308641975,0)" xlink:href="#bl"/><use transform="matrix(0.06172839506172839,0,0,0.06172839506172839,81.29629629629629,0)" xlink:href="#bm"/><use transform="matrix(0.06172839506172839,0,0,0.06172839506172839,92.4074074074074,0)" xlink:href="#bi"/></g><path fill="#3a414a" d="M26 75v-336h71v23H56V52h41v23H26" id="bn"/><path fill="#3a414a" d="M33 0v-248h34V0H33" id="bo"/><path fill="#3a414a" d="M101-234c-31-9-42 10-38 44h38v23H63V0H32v-167H5v-23h27c-7-52 17-82 69-68v24" id="bp"/><path fill="#3a414a" d="M33-154v-36h34v36H33zM33 0v-36h34V0H33" id="bq"/><g id="G"><use transform="matrix(0.06172839506172839,0,0,0.06172839506172839,0,0)" xlink:href="#bn"/><use transform="matrix(0.06172839506172839,0,0,0.06172839506172839,6.172839506172839,0)" xlink:href="#bo"/><use transform="matrix(0.06172839506172839,0,0,0.06172839506172839,12.345679012345679,0)" xlink:href="#bp"/><use transform="matrix(0.06172839506172839,0,0,0.06172839506172839,18.51851851851852,0)" xlink:href="#bq"/></g><path fill="#3a414a" d="M137 0h-34L2-248h35l83 218 83-218h36" id="br"/><path fill="#3a414a" d="M106-169C34-169 62-67 57 0H25v-261h32l-1 103c12-21 28-36 61-36 89 0 53 116 60 194h-32v-121c2-32-8-49-39-48" id="bs"/><g id="H"><use transform="matrix(0.06172839506172839,0,0,0.06172839506172839,0,0)" xlink:href="#br"/><use transform="matrix(0.06172839506172839,0,0,0.06172839506172839,13.580246913580245,0)" xlink:href="#bi"/><use transform="matrix(0.06172839506172839,0,0,0.06172839506172839,25.925925925925924,0)" xlink:href="#bs"/><use transform="matrix(0.06172839506172839,0,0,0.06172839506172839,38.2716049382716,0)" xlink:href="#bl"/><use transform="matrix(0.06172839506172839,0,0,0.06172839506172839,43.148148148148145,0)" xlink:href="#ah"/><use transform="matrix(0.06172839506172839,0,0,0.06172839506172839,54.25925925925925,0)" xlink:href="#bh"/><use transform="matrix(0.06172839506172839,0,0,0.06172839506172839,59.1358024691358,0)" xlink:href="#bi"/></g><path fill="#3a414a" d="M206 0h-36l-40-164L89 0H53L-1-190h32L70-26l43-164h34l41 164 42-164h31" id="bt"/><path fill="#3a414a" d="M135-143c-3-34-86-38-87 0 15 53 115 12 119 90S17 21 10-45l28-5c4 36 97 45 98 0-10-56-113-15-118-90-4-57 82-63 122-42 12 7 21 19 24 35" id="bu"/><g id="I"><use transform="matrix(0.06172839506172839,0,0,0.06172839506172839,0,0)" xlink:href="#bt"/><use transform="matrix(0.06172839506172839,0,0,0.06172839506172839,15.987654320987653,0)" xlink:href="#bk"/><use transform="matrix(0.06172839506172839,0,0,0.06172839506172839,28.333333333333332,0)" xlink:href="#bj"/><use transform="matrix(0.06172839506172839,0,0,0.06172839506172839,40.67901234567901,0)" xlink:href="#bu"/></g><g id="J"><use transform="matrix(0.06172839506172839,0,0,0.06172839506172839,0,0)" xlink:href="#ai"/><use transform="matrix(0.06172839506172839,0,0,0.06172839506172839,6.172839506172839,0)" xlink:href="#aj"/></g><path fill="#3a414a" d="M84 4C-5 8 30-112 23-190h32v120c0 31 7 50 39 49 72-2 45-101 50-169h31l1 190h-30c-1-10 1-25-2-33-11 22-28 36-60 37" id="bv"/><g id="K"><use transform="matrix(0.06172839506172839,0,0,0.06172839506172839,0,0)" xlink:href="#ah"/><use transform="matrix(0.06172839506172839,0,0,0.06172839506172839,11.11111111111111,0)" xlink:href="#bv"/><use transform="matrix(0.06172839506172839,0,0,0.06172839506172839,23.45679012345679,0)" xlink:href="#ai"/></g><path fill="#3a414a" d="M3 75V52h41v-290H3v-23h71V75H3" id="bw"/><g id="L"><use transform="matrix(0.06172839506172839,0,0,0.06172839506172839,0,0)" xlink:href="#bl"/><use transform="matrix(0.06172839506172839,0,0,0.06172839506172839,4.876543209876543,0)" xlink:href="#bj"/><use transform="matrix(0.06172839506172839,0,0,0.06172839506172839,17.22222222222222,0)" xlink:href="#bw"/></g><use transform="matrix(0.06172839506172839,0,0,0.06172839506172839,0,0)" xlink:href="#bn" id="M"/><path fill="#3a414a" d="M30 0v-248h187v28H63v79h144v27H63v87h162V0H30" id="bx"/><g id="N"><use transform="matrix(0.06172839506172839,0,0,0.06172839506172839,0,0)" xlink:href="#bx"/><use transform="matrix(0.06172839506172839,0,0,0.06172839506172839,14.814814814814813,0)" xlink:href="#bh"/><use transform="matrix(0.06172839506172839,0,0,0.06172839506172839,19.691358024691354,0)" xlink:href="#bu"/><use transform="matrix(0.06172839506172839,0,0,0.06172839506172839,30.802469135802465,0)" xlink:href="#bi"/><use transform="matrix(0.06172839506172839,0,0,0.06172839506172839,43.148148148148145,0)" xlink:href="#bw"/></g><g id="O"><use transform="matrix(0.04938271604938272,0,0,0.04938271604938272,0,0)" xlink:href="#aF"/><use transform="matrix(0.04938271604938272,0,0,0.04938271604938272,11.851851851851853,0)" xlink:href="#aw"/><use transform="matrix(0.04938271604938272,0,0,0.04938271604938272,21.7283950617284,0)" xlink:href="#ap"/><use transform="matrix(0.04938271604938272,0,0,0.04938271604938272,32.543209876543216,0)" xlink:href="#aG"/></g><path fill="#333" d="M121-226c-27-7-43 5-38 36h38v33H83V0H34v-157H6v-33h28c-9-59 32-81 87-68v32" id="by"/><g id="P"><use transform="matrix(0.04938271604938272,0,0,0.04938271604938272,0,0)" xlink:href="#at"/><use transform="matrix(0.04938271604938272,0,0,0.04938271604938272,4.938271604938272,0)" xlink:href="#ap"/><use transform="matrix(0.04938271604938272,0,0,0.04938271604938272,15.753086419753087,0)" xlink:href="#by"/><use transform="matrix(0.04938271604938272,0,0,0.04938271604938272,21.62962962962963,0)" xlink:href="#ar"/></g><path fill="#333" d="M24-248c120-7 223 5 221 122C244-46 201 0 124 0H24v-248zM76-40c74 7 117-18 117-86 0-67-45-88-117-82v168" id="bz"/><g id="Q"><use transform="matrix(0.04938271604938272,0,0,0.04938271604938272,0,0)" xlink:href="#bz"/><use transform="matrix(0.04938271604938272,0,0,0.04938271604938272,12.790123456790125,0)" xlink:href="#at"/><use transform="matrix(0.04938271604938272,0,0,0.04938271604938272,17.7283950617284,0)" xlink:href="#az"/><use transform="matrix(0.04938271604938272,0,0,0.04938271604938272,27.604938271604947,0)" xlink:href="#aC"/><use transform="matrix(0.04938271604938272,0,0,0.04938271604938272,33.48148148148149,0)" xlink:href="#aI"/><use transform="matrix(0.04938271604938272,0,0,0.04938271604938272,40.39506172839507,0)" xlink:href="#aK"/><use transform="matrix(0.04938271604938272,0,0,0.04938271604938272,51.209876543209894,0)" xlink:href="#aD"/><use transform="matrix(0.04938271604938272,0,0,0.04938271604938272,62.02469135802471,0)" xlink:href="#aC"/><use transform="matrix(0.04938271604938272,0,0,0.04938271604938272,67.90123456790124,0)" xlink:href="#aw"/></g><g id="R"><use transform="matrix(0.04938271604938272,0,0,0.04938271604938272,0,0)" xlink:href="#at"/><use transform="matrix(0.04938271604938272,0,0,0.04938271604938272,4.938271604938272,0)" xlink:href="#ap"/><use transform="matrix(0.04938271604938272,0,0,0.04938271604938272,15.753086419753087,0)" xlink:href="#by"/><use transform="matrix(0.04938271604938272,0,0,0.04938271604938272,21.62962962962963,0)" xlink:href="#ar"/></g></defs></g></svg>